<svg xmlns="http://www.w3.org/2000/svg" width="1200" height="380" viewBox="0 0 1200 380" role="img" aria-label="Hub de Ferramentas — O catálogo que aponta, não executa">
  <defs>
    <linearGradient id="bg" x1="0" y1="0" x2="1" y2="1">
      <stop offset="0%" stop-color="#1e3a8a"/>
      <stop offset="100%" stop-color="#2563eb"/>
    </linearGradient>
    <filter id="sombra" x="-20%" y="-20%" width="140%" height="140%">
      <feDropShadow dx="0" dy="10" stdDeviation="16" flood-color="#000000" flood-opacity=".28"/>
    </filter>
    <clipPath id="recorte"><rect width="428" height="252" rx="18"/></clipPath>
    <clipPath id="moldura"><rect width="1200" height="380" rx="24"/></clipPath>
  </defs>

  <rect width="1200" height="380" rx="24" fill="url(#bg)"/>
  <circle cx="1105" cy="60" r="190" fill="#bfdbfe" opacity="0.08"/>
  <circle cx="110" cy="360" r="150" fill="#bfdbfe" opacity="0.064"/>
  <g clip-path="url(#moldura)">
  <g stroke="#bfdbfe" stroke-width="2" stroke-dasharray="6 6" fill="none" opacity=".8">
    <path d="M800 190C850 190 850 104 900 104"/>
    <path d="M800 190C850 190 850 262 900 262"/>
  </g>
  <svg x="716" y="146" width="88" height="88" viewBox="0 0 32 32" ><rect width="32" height="32" rx="8" fill="#1d4ed8" />
  <g stroke="#ffffff" stroke-width="2.8" stroke-linecap="round">
    <line x1="16" y1="16" x2="16" y2="8.5" />
    <line x1="16" y1="16" x2="22.6" y2="20" />
    <line x1="16" y1="16" x2="9.4" y2="20" />
  </g>
  <circle cx="16" cy="16" r="4.2" fill="#ffffff" />
  <circle cx="16" cy="7.6" r="3.3" fill="#ffffff" />
  <circle cx="23.3" cy="20.4" r="3.3" fill="#ffffff" />
  <circle cx="8.7" cy="20.4" r="3.3" fill="#ffffff" /></svg>
  
  <g transform="translate(900,48)" filter="url(#sombra)">
    <rect width="250" height="112" rx="12" fill="#ffffff" stroke="#e2e8f0"/>
    <rect x="18" y="18" width="16" height="18" rx="3" fill="none" stroke="#1d4ed8" stroke-width="2"/>
    <text x="44" y="33" font-family="system-ui,-apple-system,'Segoe UI',Roboto,sans-serif" font-size="15" font-weight="600" fill="#0f172a">Gerador de Certificados</text>
    <text x="18" y="58" font-family="system-ui,-apple-system,'Segoe UI',Roboto,sans-serif" font-size="11.5" fill="#334155">Um certificado por pessoa, de um .docx</text>
    <rect x="18" y="66" width="190" height="5" rx="2.5" fill="#e2e8f0"/>
    <g transform="translate(18,82)">
      <rect x="0" y="4" width="10" height="8" rx="1.5" fill="none" stroke="#15803d" stroke-width="1.6"/>
      <path d="M2 4V2.5a3 3 0 0 1 6 0V4" fill="none" stroke="#15803d" stroke-width="1.6"/>
      <text x="16" y="12" font-family="system-ui,-apple-system,'Segoe UI',Roboto,sans-serif" font-size="11.5" font-weight="600" fill="#15803d">Fica no seu navegador</text>
    </g>
    <path d="M228 86h6v6M234 86l-7 7M232 96h-8v-8" fill="none" stroke="#64748b" stroke-width="1.5"/>
  </g>
  
  <g transform="translate(900,206)" filter="url(#sombra)">
    <rect width="250" height="112" rx="12" fill="#ffffff" stroke="#e2e8f0"/>
    <rect x="18" y="18" width="16" height="18" rx="3" fill="none" stroke="#1d4ed8" stroke-width="2"/>
    <text x="44" y="33" font-family="system-ui,-apple-system,'Segoe UI',Roboto,sans-serif" font-size="15" font-weight="600" fill="#0f172a">Visualizador de Docs</text>
    <text x="18" y="58" font-family="system-ui,-apple-system,'Segoe UI',Roboto,sans-serif" font-size="11.5" fill="#334155">Vários .docx empilhados para conferir</text>
    <rect x="18" y="66" width="190" height="5" rx="2.5" fill="#e2e8f0"/>
    <g transform="translate(18,82)">
      <rect x="0" y="4" width="10" height="8" rx="1.5" fill="none" stroke="#15803d" stroke-width="1.6"/>
      <path d="M2 4V2.5a3 3 0 0 1 6 0V4" fill="none" stroke="#15803d" stroke-width="1.6"/>
      <text x="16" y="12" font-family="system-ui,-apple-system,'Segoe UI',Roboto,sans-serif" font-size="11.5" font-weight="600" fill="#15803d">Fica no seu navegador</text>
    </g>
    <path d="M228 86h6v6M234 86l-7 7M232 96h-8v-8" fill="none" stroke="#64748b" stroke-width="1.5"/>
  </g>
  </g>

  <text x="72" y="148" font-family="system-ui,-apple-system,'Segoe UI',Roboto,sans-serif" font-size="44" font-weight="800" letter-spacing="-1" fill="#ffffff">Hub de Ferramentas</text>
  <text x="74" y="196" font-family="system-ui,-apple-system,'Segoe UI',Roboto,sans-serif" font-size="24" font-weight="600" fill="#ffffff">O catálogo que aponta, não executa</text>
  <text x="74" y="232" font-family="system-ui,-apple-system,'Segoe UI',Roboto,sans-serif" font-size="17" fill="rgba(255,255,255,.78)">Next.js · TypeScript · Tailwind v4 · shadcn/ui · Vitest</text>

  <g font-family="system-ui,-apple-system,'Segoe UI',Roboto,sans-serif" font-size="14" font-weight="600">
    <rect x="74" y="262" width="184" height="32" rx="16" fill="rgba(255,255,255,.16)"/>
    <circle cx="94" cy="278" r="4" fill="#ffffff"/><text x="106" y="283" fill="#ffffff">Server Components</text>
    <rect x="268" y="262" width="152" height="32" rx="16" fill="rgba(255,255,255,.16)"/>
    <circle cx="288" cy="278" r="4" fill="#ffffff"/><text x="300" y="283" fill="#ffffff">CSP com nonce</text>
    <rect x="430" y="262" width="119" height="32" rx="16" fill="rgba(255,255,255,.16)"/>
    <circle cx="450" cy="278" r="4" fill="#ffffff"/><text x="462" y="283" fill="#ffffff">49 testes</text>
  </g>


</svg>
